<svg xmlns="http://www.w3.org/2000/svg" version="1.1" xmlns:xlink="http://www.w3.org/1999/xlink" width="1500" height="1500" viewBox="0 0 1500 1500"><rect width="1500" height="1500" x="0" y="0" id="background" stroke="transparent" fill="#000000"></rect><svg xml:space="preserve" width="1000" height="1000" data-version="2" data-id="lg_6dTH0YyFjtJO7psDcq" viewBox="0 0 254 435" x="250" y="250"><rect width="100%" height="100%" fill="transparent"></rect><path fill="#fff" d="M2.265 429.7V4.3h97.65q25.37 0 42.17 7.74 16.8 7.73 26.47 22.96 9.67 15.23 13.78 37.58 4.1 22.36 4.1 51.61v8.94q0 41.09-7.13 69.97-7.13 28.89-25.5 43.87-18.36 14.99-51.72 14.99h-35.05V429.7Zm64.77-221.16h22.24q14.26 0 21.27-7.25t9.31-24.05q2.29-16.8 2.29-44.83v-8.22q-.24-34.57-6.04-52.33-5.8-17.77-26.35-17.77h-22.72Z" paint-order="stroke"></path><rect width="184.17" height="425.4" x="-92.08" y="-212.7" fill="none" rx="0" ry="0" transform="translate(94.85 217.5)"></rect><path fill="#fff" d="M99.325 330.2q.74 0 1.55.08t1.44.22l-.47 3.46q-.61-.16-1.35-.25-.74-.09-1.39-.09-1.49 0-2.8.59-1.31.6-2.3 1.71-.99 1.11-1.55 2.67-.56 1.56-.56 3.47v13.21h-3.75v-24.62h3.1l.4 4.54h.16q.76-1.37 1.84-2.5 1.08-1.14 2.5-1.81 1.43-.68 3.18-.68"></path><rect width="14.17" height="25.07" x="-7.08" y="-12.54" fill="none" rx="0" ry="0" transform="translate(95.73 343.24)"></rect><path fill="#fff" d="M116.145 330.25q4.41 0 6.54 1.98 2.13 1.97 2.13 6.31v16.73h-2.71l-.72-3.64h-.18q-1.03 1.35-2.16 2.26-1.12.91-2.59 1.37-1.47.46-3.61.46-2.24 0-3.98-.79-1.74-.78-2.74-2.38-1-1.59-1-4.04 0-3.68 2.92-5.66t8.89-2.16l4.25-.18v-1.5q0-3.19-1.37-4.47-1.37-1.28-3.87-1.28-1.93 0-3.68.56-1.75.56-3.33 1.33l-1.14-2.83q1.66-.86 3.82-1.46 2.15-.61 4.53-.61m4.99 12.89-3.75.16q-4.6.18-6.49 1.5-1.89 1.33-1.89 3.75 0 2.12 1.28 3.13 1.28 1.01 3.39 1.01 3.28 0 5.37-1.82 2.09-1.82 2.09-5.46Z"></path><rect width="19.69" height="25.47" x="-9.85" y="-12.73" fill="none" rx="0" ry="0" transform="translate(115.47 343.49)"></rect><path fill="#fff" d="M140.455 352.67q.92 0 1.88-.16.97-.16 1.58-.38v2.89q-.65.3-1.81.5-1.16.2-2.26.2-1.95 0-3.55-.69-1.59-.68-2.55-2.32-.95-1.64-.95-4.54v-14.6h-3.51v-1.82l3.53-1.46 1.48-5.34h2.25v5.7h7.21v2.92h-7.21v14.49q0 2.31 1.07 3.46 1.06 1.15 2.84 1.15"></path><rect width="14.63" height="30.77" x="-7.32" y="-15.38" fill="none" rx="0" ry="0" transform="translate(137.1 340.83)"></rect><path fill="#fff" d="M158.375 330.2q3.15 0 5.39 1.4 2.25 1.39 3.44 3.89 1.19 2.51 1.19 5.85v2.32h-17q.06 4.33 2.15 6.6 2.09 2.27 5.89 2.27 2.33 0 4.13-.43 1.8-.42 3.73-1.25v3.28q-1.87.83-3.7 1.21t-4.32.38q-3.55 0-6.19-1.45-2.64-1.45-4.1-4.26-1.46-2.8-1.46-6.87 0-3.97 1.34-6.88 1.34-2.91 3.77-4.48 2.44-1.58 5.74-1.58m-.04 3.06q-2.99 0-4.77 1.95-1.77 1.96-2.11 5.46h13.03q-.02-2.2-.68-3.87-.67-1.68-2.01-2.61-1.35-.93-3.46-.93"></path><rect width="20.87" height="25.52" x="-10.44" y="-12.76" fill="none" rx="0" ry="0" transform="translate(158.46 343.46)"></rect><path fill="#fff" d="M184.205 330.2q3.15 0 5.39 1.4 2.25 1.39 3.44 3.89 1.19 2.51 1.19 5.85v2.32h-17q.06 4.33 2.15 6.6 2.09 2.27 5.89 2.27 2.33 0 4.13-.43 1.8-.42 3.73-1.25v3.28q-1.87.83-3.7 1.21t-4.32.38q-3.55 0-6.19-1.45-2.64-1.45-4.1-4.26-1.46-2.8-1.46-6.87 0-3.97 1.34-6.88 1.34-2.91 3.77-4.48 2.44-1.58 5.74-1.58m-.04 3.06q-2.99 0-4.77 1.95-1.77 1.96-2.11 5.46h13.03q-.02-2.2-.68-3.87-.67-1.68-2.01-2.61-1.35-.93-3.46-.93"></path><rect width="20.87" height="25.52" x="-10.44" y="-12.76" fill="none" rx="0" ry="0" transform="translate(184.29 343.46)"></rect><path fill="#fff" d="M204.265 320.32v18.15q0 .9-.07 2.19t-.11 2.28h.16q.47-.58 1.38-1.73.91-1.15 1.54-1.84l8.17-8.72h4.38l-9.9 10.52 10.62 14.1h-4.49l-8.69-11.66-2.99 2.74v8.92h-3.71v-34.95Z"></path><rect width="19.88" height="34.95" x="-9.94" y="-17.48" fill="none" rx="0" ry="0" transform="translate(211 338.3)"></rect><path fill="#fff" d="m227.875 322.43-.86 11.86h-2.36l-.83-11.86Z"></path><rect width="4.05" height="11.86" x="-2.02" y="-5.93" fill="none" rx="0" ry="0" transform="translate(226.35 328.86)"></rect><path fill="#fff" d="M250.735 348.53q0 2.36-1.18 3.97-1.18 1.6-3.37 2.41-2.19.81-5.22.81-2.58 0-4.47-.4-1.89-.41-3.3-1.15v-3.44q1.5.74 3.59 1.35 2.09.61 4.27.61 3.19 0 4.63-1.04 1.43-1.03 1.43-2.8 0-1.01-.57-1.79-.57-.77-1.92-1.5t-3.73-1.61q-2.36-.9-4.07-1.79-1.72-.88-2.65-2.16-.94-1.28-.94-3.33 0-3.12 2.53-4.79 2.53-1.68 6.64-1.68 2.22 0 4.16.44 1.95.44 3.63 1.18l-1.26 2.99q-1.52-.65-3.25-1.1-1.73-.45-3.53-.45-2.58 0-3.96.85-1.39.86-1.39 2.34 0 1.14.64 1.89.65.74 2.06 1.39 1.42.65 3.73 1.53 2.31.85 4 1.76 1.68.91 2.59 2.2.91 1.29.91 3.31"></path><rect width="17.54" height="25.52" x="-8.77" y="-12.76" fill="none" rx="0" ry="0" transform="translate(242.47 343.46)"></rect><path fill="#fff" d="M109.365 403.21q0 3.04-.78 5.42-.79 2.38-2.27 4.02-1.49 1.64-3.59 2.5-2.1.87-4.75.87-2.47 0-4.52-.87-2.06-.86-3.55-2.5-1.49-1.64-2.31-4.02-.82-2.38-.82-5.42 0-4.04 1.37-6.88t3.92-4.34q2.54-1.49 6.07-1.49 3.37 0 5.9 1.51 2.52 1.5 3.93 4.34 1.4 2.84 1.4 6.86m-18.73 0q0 2.97.79 5.15.78 2.18 2.42 3.37t4.22 1.19q2.56 0 4.22-1.19 1.65-1.19 2.43-3.37.79-2.18.79-5.15 0-2.94-.79-5.08-.78-2.15-2.42-3.32-1.64-1.16-4.25-1.16-3.84 0-5.63 2.53-1.78 2.54-1.78 7.03"></path><rect width="22.59" height="25.52" x="-11.29" y="-12.76" fill="none" rx="0" ry="0" transform="translate(98.57 403.76)"></rect><path fill="#fff" d="M126.995 390.5q.74 0 1.55.08t1.44.21l-.47 3.46q-.61-.16-1.35-.24-.74-.09-1.39-.09-1.48 0-2.8.59-1.31.6-2.3 1.71-.99 1.11-1.55 2.67-.56 1.56-.56 3.47v13.21h-3.75v-24.62h3.1l.4 4.54h.16q.76-1.37 1.84-2.51 1.08-1.13 2.51-1.81 1.42-.67 3.17-.67"></path><rect width="14.17" height="25.07" x="-7.08" y="-12.54" fill="none" rx="0" ry="0" transform="translate(123.4 403.54)"></rect><path fill="#fff" d="M142.565 412.96q.92 0 1.89-.16.96-.15 1.57-.38v2.9q-.65.29-1.81.49-1.16.21-2.26.21-1.95 0-3.55-.69-1.59-.68-2.55-2.32-.95-1.64-.95-4.54v-14.6h-3.5v-1.82l3.52-1.46 1.48-5.34h2.25v5.7h7.21v2.92h-7.21v14.49q0 2.31 1.07 3.46 1.06 1.14 2.84 1.14"></path><rect width="14.62" height="30.77" x="-7.31" y="-15.38" fill="none" rx="0" ry="0" transform="translate(139.22 401.13)"></rect><path fill="#fff" d="M161.965 393.87h-6.13v21.7h-3.73v-21.7h-4.35v-1.8l4.35-1.23v-1.64q0-3.1.93-5.04.92-1.95 2.67-2.87 1.75-.92 4.27-.92 1.41 0 2.59.25t2.08.56l-.97 2.94q-.76-.24-1.72-.46-.95-.21-1.94-.21-2.13 0-3.15 1.38-1.03 1.38-1.03 4.32v1.8h6.13Z"></path><rect width="16.89" height="35.2" x="-8.45" y="-17.6" fill="none" rx="0" ry="0" transform="translate(156.7 398.47)"></rect><path fill="#fff" d="M187.715 403.21q0 3.04-.79 5.42t-2.27 4.02q-1.48 1.64-3.58 2.5-2.1.87-4.75.87-2.47 0-4.53-.87-2.05-.86-3.55-2.5-1.49-1.64-2.31-4.02-.82-2.38-.82-5.42 0-4.04 1.37-6.88t3.92-4.34q2.55-1.49 6.07-1.49 3.37 0 5.9 1.51 2.53 1.5 3.93 4.34 1.41 2.84 1.41 6.86m-18.74 0q0 2.97.79 5.15t2.42 3.37q1.64 1.19 4.23 1.19 2.56 0 4.21-1.19t2.44-3.37q.78-2.18.78-5.15 0-2.94-.78-5.08-.79-2.15-2.43-3.32-1.64-1.16-4.25-1.16-3.84 0-5.62 2.53-1.79 2.54-1.79 7.03"></path><rect width="22.6" height="25.52" x="-11.3" y="-12.76" fill="none" rx="0" ry="0" transform="translate(176.91 403.76)"></rect><path fill="#fff" d="M197.905 415.57h-3.75v-34.95h3.75Z"></path><rect width="3.75" height="34.95" x="-1.88" y="-17.48" fill="none" rx="0" ry="0" transform="translate(196.53 398.6)"></rect><path fill="#fff" d="M209.495 390.95v24.62h-3.73v-24.62Zm-1.82-9.21q.92 0 1.59.6.66.59.66 1.85 0 1.23-.66 1.84-.67.61-1.59.61-.96 0-1.6-.61-.64-.61-.64-1.84 0-1.26.64-1.85.64-.6 1.6-.6"></path><rect width="4.49" height="33.83" x="-2.25" y="-16.91" fill="none" rx="0" ry="0" transform="translate(208.18 399.15)"></rect><path fill="#fff" d="M238.605 403.21q0 3.04-.78 5.42-.79 2.38-2.27 4.02-1.49 1.64-3.59 2.5-2.1.87-4.75.87-2.47 0-4.52-.87-2.06-.86-3.55-2.5-1.49-1.64-2.31-4.02-.82-2.38-.82-5.42 0-4.04 1.37-6.88t3.92-4.34q2.54-1.49 6.07-1.49 3.37 0 5.9 1.51 2.52 1.5 3.93 4.34 1.4 2.84 1.4 6.86m-18.73 0q0 2.97.79 5.15.78 2.18 2.42 3.37t4.22 1.19q2.56 0 4.22-1.19 1.65-1.19 2.43-3.37.79-2.18.79-5.15 0-2.94-.79-5.08-.78-2.15-2.42-3.32-1.64-1.16-4.25-1.16-3.84 0-5.63 2.53-1.78 2.54-1.78 7.03"></path><rect width="22.59" height="25.52" x="-11.29" y="-12.76" fill="none" rx="0" ry="0" transform="translate(227.81 403.76)"></rect></svg></svg>